{
    "asset" : {
        "generator" : "Khronos glTF Blender I/O v1.1.46",
        "version" : "2.0"
    },
    "scene" : 0,
    "scenes" : [
        {
            "name" : "Scene",
            "nodes" : [
                0,
                1,
                2,
                3,
                4,
                5,
                6,
                7,
                8,
                9
            ]
        }
    ],
    "nodes" : [
        {
            "mesh" : 0,
            "name" : "Disc1",
            "translation" : [
                0,
                0.20000001788139343,
                1.75
            ]
        },
        {
            "mesh" : 1,
            "name" : "Base"
        },
        {
            "mesh" : 2,
            "name" : "Peg1",
            "translation" : [
                0,
                1.0000003576278687,
                1.749999761581421
            ]
        },
        {
            "mesh" : 3,
            "name" : "Peg2",
            "translation" : [
                0,
                1.0000003576278687,
                0
            ]
        },
        {
            "mesh" : 4,
            "name" : "Peg3",
            "translation" : [
                0,
                1.0000003576278687,
                -1.750000238418579
            ]
        },
        {
            "name" : "Lamp",
            "rotation" : [
                0.16907575726509094,
                0.7558803558349609,
                -0.27217137813568115,
                0.570947527885437
            ],
            "translation" : [
                4.076245307922363,
                5.903861999511719,
                -1.0054539442062378
            ]
        },
        {
            "name" : "Camera",
            "rotation" : [
                0.483536034822464,
                0.33687159419059753,
                -0.20870360732078552,
                0.7804827094078064
            ],
            "translation" : [
                7.481131553649902,
                5.34366512298584,
                6.5076398849487305
            ]
        },
        {
            "mesh" : 5,
            "name" : "Disc2",
            "translation" : [
                0,
                0.3999997675418854,
                1.75
            ]
        },
        {
            "mesh" : 6,
            "name" : "Disc3",
            "translation" : [
                0,
                0.5999999642372131,
                1.7499998807907104
            ]
        },
        {
            "mesh" : 7,
            "name" : "Disc4",
            "translation" : [
                0,
                0.8000000715255737,
                1.7499998807907104
            ]
        }
    ],
    "materials" : [
        {
            "doubleSided" : true,
            "emissiveFactor" : [
                0,
                0,
                0
            ],
            "name" : "Material.005",
            "pbrMetallicRoughness" : {
                "baseColorFactor" : [
                    0,
                    0,
                    1,
                    1
                ],
                "metallicFactor" : 0,
                "roughnessFactor" : 0.5
            }
        },
        {
            "doubleSided" : true,
            "emissiveFactor" : [
                0,
                0,
                0
            ],
            "name" : "Wood Material",
            "pbrMetallicRoughness" : {
                "baseColorTexture" : {
                    "index" : 0,
                    "texCoord" : 0
                },
                "metallicFactor" : 0,
                "roughnessFactor" : 0.5
            }
        },
        {
            "doubleSided" : true,
            "emissiveFactor" : [
                0,
                0,
                0
            ],
            "name" : "Material.004",
            "pbrMetallicRoughness" : {
                "baseColorFactor" : [
                    0,
                    1,
                    0,
                    1
                ],
                "metallicFactor" : 0,
                "roughnessFactor" : 0.5
            }
        },
        {
            "doubleSided" : true,
            "emissiveFactor" : [
                0,
                0,
                0
            ],
            "name" : "Material.003",
            "pbrMetallicRoughness" : {
                "baseColorFactor" : [
                    1,
                    1,
                    0,
                    1
                ],
                "metallicFactor" : 0,
                "roughnessFactor" : 0.5
            }
        },
        {
            "doubleSided" : true,
            "emissiveFactor" : [
                0,
                0,
                0
            ],
            "name" : "Material.002",
            "pbrMetallicRoughness" : {
                "baseColorFactor" : [
                    0.8000000715255737,
                    0.016744356602430344,
                    0,
                    1
                ],
                "metallicFactor" : 0,
                "roughnessFactor" : 0.5
            }
        }
    ],
    "meshes" : [
        {
            "name" : "Disc1",
            "primitives" : [
                {
                    "attributes" : {
                        "POSITION" : 0,
                        "NORMAL" : 1
                    },
                    "indices" : 2,
                    "material" : 0
                }
            ]
        },
        {
            "name" : "Base",
            "primitives" : [
                {
                    "attributes" : {
                        "POSITION" : 3,
                        "NORMAL" : 4,
                        "TEXCOORD_0" : 5
                    },
                    "indices" : 6,
                    "material" : 1
                }
            ]
        },
        {
            "name" : "Peg1",
            "primitives" : [
                {
                    "attributes" : {
                        "POSITION" : 7,
                        "NORMAL" : 8,
                        "TEXCOORD_0" : 9,
                        "JOINTS_0" : 10,
                        "WEIGHTS_0" : 11
                    },
                    "indices" : 12,
                    "material" : 1
                }
            ]
        },
        {
            "name" : "Peg2",
            "primitives" : [
                {
                    "attributes" : {
                        "POSITION" : 13,
                        "NORMAL" : 14,
                        "TEXCOORD_0" : 15,
                        "JOINTS_0" : 16,
                        "WEIGHTS_0" : 17
                    },
                    "indices" : 18,
                    "material" : 1
                }
            ]
        },
        {
            "name" : "Peg3",
            "primitives" : [
                {
                    "attributes" : {
                        "POSITION" : 19,
                        "NORMAL" : 20,
                        "TEXCOORD_0" : 21,
                        "JOINTS_0" : 22,
                        "WEIGHTS_0" : 23
                    },
                    "indices" : 24,
                    "material" : 1
                }
            ]
        },
        {
            "name" : "Disc2",
            "primitives" : [
                {
                    "attributes" : {
                        "POSITION" : 25,
                        "NORMAL" : 26
                    },
                    "indices" : 27,
                    "material" : 2
                }
            ]
        },
        {
            "name" : "Disc3",
            "primitives" : [
                {
                    "attributes" : {
                        "POSITION" : 28,
                        "NORMAL" : 29
                    },
                    "indices" : 30,
                    "material" : 3
                }
            ]
        },
        {
            "name" : "Disc4",
            "primitives" : [
                {
                    "attributes" : {
                        "POSITION" : 31,
                        "NORMAL" : 32
                    },
                    "indices" : 33,
                    "material" : 4
                }
            ]
        }
    ],
    "textures" : [
        {
            "source" : 0
        }
    ],
    "images" : [
        {
            "mimeType" : "image/jpeg",
            "name" : "seamless-wood-background-1",
            "uri" : "seamless-wood-background-1.jpg"
        }
    ],
    "accessors" : [
        {
            "bufferView" : 0,
            "componentType" : 5126,
            "count" : 917,
            "max" : [
                0.8980395793914795,
                0.10000026971101761,
                0.8980397582054138
            ],
            "min" : [
                -0.898039698600769,
                -0.1000000387430191,
                -0.8980396389961243
            ],
            "type" : "VEC3"
        },
        {
            "bufferView" : 1,
            "componentType" : 5126,
            "count" : 917,
            "type" : "VEC3"
        },
        {
            "bufferView" : 2,
            "componentType" : 5123,
            "count" : 2352,
            "type" : "SCALAR"
        },
        {
            "bufferView" : 3,
            "componentType" : 5126,
            "count" : 216,
            "max" : [
                1.000000238418579,
                0.10000000149011612,
                3.0000009536743164
            ],
            "min" : [
                -1.000000238418579,
                -0.10000000149011612,
                -3.000000476837158
            ],
            "type" : "VEC3"
        },
        {
            "bufferView" : 4,
            "componentType" : 5126,
            "count" : 216,
            "type" : "VEC3"
        },
        {
            "bufferView" : 5,
            "componentType" : 5126,
            "count" : 216,
            "type" : "VEC2"
        },
        {
            "bufferView" : 6,
            "componentType" : 5123,
            "count" : 900,
            "type" : "SCALAR"
        },
        {
            "bufferView" : 7,
            "componentType" : 5126,
            "count" : 276,
            "max" : [
                0.10000003129243851,
                1.0000008344650269,
                0.10000026226043701
            ],
            "min" : [
                -0.10000001639127731,
                -1.0000003576278687,
                -0.09999978542327881
            ],
            "type" : "VEC3"
        },
        {
            "bufferView" : 8,
            "componentType" : 5126,
            "count" : 276,
            "type" : "VEC3"
        },
        {
            "bufferView" : 9,
            "componentType" : 5126,
            "count" : 276,
            "type" : "VEC2"
        },
        {
            "bufferView" : 10,
            "componentType" : 5123,
            "count" : 276,
            "type" : "VEC4"
        },
        {
            "bufferView" : 11,
            "componentType" : 5126,
            "count" : 276,
            "type" : "VEC4"
        },
        {
            "bufferView" : 12,
            "componentType" : 5123,
            "count" : 1053,
            "type" : "SCALAR"
        },
        {
            "bufferView" : 13,
            "componentType" : 5126,
            "count" : 287,
            "max" : [
                0.10000003129243851,
                1.0000008344650269,
                0.1000000536441803
            ],
            "min" : [
                -0.10000001639127731,
                -1.0000003576278687,
                -0.09999999403953552
            ],
            "type" : "VEC3"
        },
        {
            "bufferView" : 14,
            "componentType" : 5126,
            "count" : 287,
            "type" : "VEC3"
        },
        {
            "bufferView" : 15,
            "componentType" : 5126,
            "count" : 287,
            "type" : "VEC2"
        },
        {
            "bufferView" : 16,
            "componentType" : 5123,
            "count" : 287,
            "type" : "VEC4"
        },
        {
            "bufferView" : 17,
            "componentType" : 5126,
            "count" : 287,
            "type" : "VEC4"
        },
        {
            "bufferView" : 18,
            "componentType" : 5123,
            "count" : 1053,
            "type" : "SCALAR"
        },
        {
            "bufferView" : 19,
            "componentType" : 5126,
            "count" : 274,
            "max" : [
                0.10000003129243851,
                1.0000008344650269,
                0.10000026226043701
            ],
            "min" : [
                -0.10000001639127731,
                -1.0000003576278687,
                -0.09999978542327881
            ],
            "type" : "VEC3"
        },
        {
            "bufferView" : 20,
            "componentType" : 5126,
            "count" : 274,
            "type" : "VEC3"
        },
        {
            "bufferView" : 21,
            "componentType" : 5126,
            "count" : 274,
            "type" : "VEC2"
        },
        {
            "bufferView" : 22,
            "componentType" : 5123,
            "count" : 274,
            "type" : "VEC4"
        },
        {
            "bufferView" : 23,
            "componentType" : 5126,
            "count" : 274,
            "type" : "VEC4"
        },
        {
            "bufferView" : 24,
            "componentType" : 5123,
            "count" : 1053,
            "type" : "SCALAR"
        },
        {
            "bufferView" : 25,
            "componentType" : 5126,
            "count" : 889,
            "max" : [
                0.790039598941803,
                0.1000007912516594,
                0.7900395393371582
            ],
            "min" : [
                -0.7900396585464478,
                -0.09999978542327881,
                -0.7900396585464478
            ],
            "type" : "VEC3"
        },
        {
            "bufferView" : 26,
            "componentType" : 5126,
            "count" : 889,
            "type" : "VEC3"
        },
        {
            "bufferView" : 27,
            "componentType" : 5123,
            "count" : 2352,
            "type" : "SCALAR"
        },
        {
            "bufferView" : 28,
            "componentType" : 5126,
            "count" : 907,
            "max" : [
                0.6910396218299866,
                0.10000008344650269,
                0.6910396218299866
            ],
            "min" : [
                -0.6910396814346313,
                -0.09999996423721313,
                -0.6910396218299866
            ],
            "type" : "VEC3"
        },
        {
            "bufferView" : 29,
            "componentType" : 5126,
            "count" : 907,
            "type" : "VEC3"
        },
        {
            "bufferView" : 30,
            "componentType" : 5123,
            "count" : 2352,
            "type" : "SCALAR"
        },
        {
            "bufferView" : 31,
            "componentType" : 5126,
            "count" : 891,
            "max" : [
                0.5920396447181702,
                0.1000002771615982,
                0.5920396447181702
            ],
            "min" : [
                -0.5920397043228149,
                -0.10000008344650269,
                -0.5920396447181702
            ],
            "type" : "VEC3"
        },
        {
            "bufferView" : 32,
            "componentType" : 5126,
            "count" : 891,
            "type" : "VEC3"
        },
        {
            "bufferView" : 33,
            "componentType" : 5123,
            "count" : 2352,
            "type" : "SCALAR"
        }
    ],
    "bufferViews" : [
        {
            "buffer" : 0,
            "byteLength" : 11004,
            "byteOffset" : 0
        },
        {
            "buffer" : 0,
            "byteLength" : 11004,
            "byteOffset" : 11004
        },
        {
            "buffer" : 0,
            "byteLength" : 4704,
            "byteOffset" : 22008
        },
        {
            "buffer" : 0,
            "byteLength" : 2592,
            "byteOffset" : 26712
        },
        {
            "buffer" : 0,
            "byteLength" : 2592,
            "byteOffset" : 29304
        },
        {
            "buffer" : 0,
            "byteLength" : 1728,
            "byteOffset" : 31896
        },
        {
            "buffer" : 0,
            "byteLength" : 1800,
            "byteOffset" : 33624
        },
        {
            "buffer" : 0,
            "byteLength" : 3312,
            "byteOffset" : 35424
        },
        {
            "buffer" : 0,
            "byteLength" : 3312,
            "byteOffset" : 38736
        },
        {
            "buffer" : 0,
            "byteLength" : 2208,
            "byteOffset" : 42048
        },
        {
            "buffer" : 0,
            "byteLength" : 2208,
            "byteOffset" : 44256
        },
        {
            "buffer" : 0,
            "byteLength" : 4416,
            "byteOffset" : 46464
        },
        {
            "buffer" : 0,
            "byteLength" : 2106,
            "byteOffset" : 50880
        },
        {
            "buffer" : 0,
            "byteLength" : 3444,
            "byteOffset" : 52988
        },
        {
            "buffer" : 0,
            "byteLength" : 3444,
            "byteOffset" : 56432
        },
        {
            "buffer" : 0,
            "byteLength" : 2296,
            "byteOffset" : 59876
        },
        {
            "buffer" : 0,
            "byteLength" : 2296,
            "byteOffset" : 62172
        },
        {
            "buffer" : 0,
            "byteLength" : 4592,
            "byteOffset" : 64468
        },
        {
            "buffer" : 0,
            "byteLength" : 2106,
            "byteOffset" : 69060
        },
        {
            "buffer" : 0,
            "byteLength" : 3288,
            "byteOffset" : 71168
        },
        {
            "buffer" : 0,
            "byteLength" : 3288,
            "byteOffset" : 74456
        },
        {
            "buffer" : 0,
            "byteLength" : 2192,
            "byteOffset" : 77744
        },
        {
            "buffer" : 0,
            "byteLength" : 2192,
            "byteOffset" : 79936
        },
        {
            "buffer" : 0,
            "byteLength" : 4384,
            "byteOffset" : 82128
        },
        {
            "buffer" : 0,
            "byteLength" : 2106,
            "byteOffset" : 86512
        },
        {
            "buffer" : 0,
            "byteLength" : 10668,
            "byteOffset" : 88620
        },
        {
            "buffer" : 0,
            "byteLength" : 10668,
            "byteOffset" : 99288
        },
        {
            "buffer" : 0,
            "byteLength" : 4704,
            "byteOffset" : 109956
        },
        {
            "buffer" : 0,
            "byteLength" : 10884,
            "byteOffset" : 114660
        },
        {
            "buffer" : 0,
            "byteLength" : 10884,
            "byteOffset" : 125544
        },
        {
            "buffer" : 0,
            "byteLength" : 4704,
            "byteOffset" : 136428
        },
        {
            "buffer" : 0,
            "byteLength" : 10692,
            "byteOffset" : 141132
        },
        {
            "buffer" : 0,
            "byteLength" : 10692,
            "byteOffset" : 151824
        },
        {
            "buffer" : 0,
            "byteLength" : 4704,
            "byteOffset" : 162516
        }
    ],
    "buffers" : [
        {
            "byteLength" : 167220,
            "uri" : "Hanoi.bin"
        }
    ]
}
